<svg xmlns="http://www.w3.org/2000/svg" width="1200" height="630" viewBox="0 0 1200 630" role="img" aria-label="WASI DEX preview">
  <defs>
    <linearGradient id="bg" x1="0" x2="1" y1="0" y2="1">
      <stop offset="0%" stop-color="#07131f"/>
      <stop offset="100%" stop-color="#10263a"/>
    </linearGradient>
    <linearGradient id="accent" x1="0" x2="1" y1="0" y2="0">
      <stop offset="0%" stop-color="#c8922a"/>
      <stop offset="100%" stop-color="#ffd166"/>
    </linearGradient>
  </defs>
  <rect width="1200" height="630" fill="url(#bg)"/>
  <circle cx="970" cy="120" r="180" fill="#1b3652" opacity="0.28"/>
  <circle cx="180" cy="540" r="220" fill="#0b1d2e" opacity="0.45"/>
  <rect x="76" y="70" width="1048" height="490" rx="28" fill="#0b1927" stroke="#24425d" stroke-width="2"/>
  <rect x="76" y="70" width="1048" height="72" rx="28" fill="#0e2134"/>
  <circle cx="116" cy="106" r="8" fill="#ff6b6b"/>
  <circle cx="144" cy="106" r="8" fill="#ffd166"/>
  <circle cx="172" cy="106" r="8" fill="#06d6a0"/>
  <text x="214" y="114" fill="#d7e4ef" font-family="Segoe UI, Arial, sans-serif" font-size="24">WASI DEX</text>
  <text x="112" y="235" fill="#ffffff" font-family="Segoe UI, Arial, sans-serif" font-size="82" font-weight="700">Africa Intelligence Platform</text>
  <text x="112" y="298" fill="#c4d2dd" font-family="Segoe UI, Arial, sans-serif" font-size="31">54 AFEX sovereign instruments • export models • XOF reference FX</text>
  <rect x="112" y="360" width="316" height="122" rx="22" fill="#112638" stroke="#284662"/>
  <rect x="452" y="360" width="316" height="122" rx="22" fill="#112638" stroke="#284662"/>
  <rect x="792" y="360" width="236" height="122" rx="22" fill="#112638" stroke="#284662"/>
  <text x="144" y="402" fill="#8ea7bb" font-family="Segoe UI, Arial, sans-serif" font-size="20">Coverage</text>
  <text x="144" y="452" fill="#ffffff" font-family="Segoe UI, Arial, sans-serif" font-size="48" font-weight="700">54 Countries</text>
  <text x="484" y="402" fill="#8ea7bb" font-family="Segoe UI, Arial, sans-serif" font-size="20">Views</text>
  <text x="484" y="452" fill="#ffffff" font-family="Segoe UI, Arial, sans-serif" font-size="48" font-weight="700">Grid • Table • FX</text>
  <text x="824" y="402" fill="#8ea7bb" font-family="Segoe UI, Arial, sans-serif" font-size="20">Ready</text>
  <text x="824" y="452" fill="url(#accent)" font-family="Segoe UI, Arial, sans-serif" font-size="48" font-weight="700">GitHub Pages</text>
  <rect x="112" y="514" width="340" height="10" rx="5" fill="url(#accent)"/>
</svg>
